<?xml version="1.0" encoding="UTF-8"?>
<!DOCTYPE svg PUBLIC "-//W3C//DTD SVG 1.1//EN" "http://www.w3.org/Graphics/SVG/1.1/DTD/svg11.dtd">
<svg xmlns="http://www.w3.org/2000/svg" version="1.1" width="720px" height="718px" style="shape-rendering:geometricPrecision; text-rendering:geometricPrecision; image-rendering:optimizeQuality; fill-rule:evenodd; clip-rule:evenodd" xmlns:xlink="http://www.w3.org/1999/xlink">
<g><path style="opacity:0.897" fill="#8e8e8e" d="M 375.5,141.5 C 375.5,141.833 375.5,142.167 375.5,142.5C 368.167,142.5 360.833,142.5 353.5,142.5C 352.167,142.5 350.833,142.5 349.5,142.5C 349.5,142.167 349.5,141.833 349.5,141.5C 358.217,140.257 366.883,140.257 375.5,141.5 Z"/></g>
<g><path style="opacity:1" fill="#373737" d="M 349.5,142.5 C 350.833,142.5 352.167,142.5 353.5,142.5C 348.384,143.806 343.051,144.473 337.5,144.5C 341.295,143.383 345.295,142.717 349.5,142.5 Z"/></g>
<g><path style="opacity:1" fill="#010101" d="M 353.5,142.5 C 360.833,142.5 368.167,142.5 375.5,142.5C 383.003,142.889 390.337,144.223 397.5,146.5C 423.841,154.568 445.841,168.901 463.5,189.5C 464.08,191.749 465.413,193.415 467.5,194.5C 468.5,195.167 469.5,195.833 470.5,196.5C 471.214,200.933 473.214,204.6 476.5,207.5C 476.755,209.967 477.755,211.967 479.5,213.5C 479.752,217.327 481.085,220.66 483.5,223.5C 485.183,226.577 486.517,229.91 487.5,233.5C 487.926,237.427 488.926,241.093 490.5,244.5C 490.858,247.689 491.525,250.689 492.5,253.5C 492.992,266.593 492.326,279.593 490.5,292.5C 490.5,293.5 490.5,294.5 490.5,295.5C 489.883,295.611 489.383,295.944 489,296.5C 488.304,299.478 487.804,302.478 487.5,305.5C 487.741,307.898 487.074,309.898 485.5,311.5C 480.262,323.873 475.595,336.539 471.5,349.5C 470.094,351.474 468.594,353.474 467,355.5C 465.457,360.918 463.123,365.918 460,370.5C 459.51,371.793 459.343,373.127 459.5,374.5C 457.461,375.911 456.461,377.911 456.5,380.5C 452.221,385.457 449.221,391.124 447.5,397.5C 445.567,398.642 444.067,400.308 443,402.5C 440.614,406.604 438.781,410.938 437.5,415.5C 435.567,416.642 434.067,418.308 433,420.5C 422.474,440.195 411.308,459.528 399.5,478.5C 390.58,490.602 382.58,503.269 375.5,516.5C 370.842,521.836 366.509,527.503 362.5,533.5C 356.328,524.486 350.162,515.486 344,506.5C 341.116,500.13 337.283,494.463 332.5,489.5C 331.386,484.911 329.053,481.245 325.5,478.5C 324.058,473.256 321.391,468.923 317.5,465.5C 305.947,443.789 293.78,422.456 281,401.5C 278.077,395.985 275.41,390.318 273,384.5C 272.329,383.748 271.496,383.414 270.5,383.5C 269.674,380.515 268.341,377.849 266.5,375.5C 266.585,372.351 265.585,369.684 263.5,367.5C 263.152,363.144 261.486,359.477 258.5,356.5C 254.022,348.542 250.355,340.209 247.5,331.5C 247.308,327.898 245.974,324.898 243.5,322.5C 242.384,318.442 240.717,314.775 238.5,311.5C 237.025,301.624 235.025,291.958 232.5,282.5C 232.5,280.833 232.5,279.167 232.5,277.5C 232.501,269.483 232.834,261.483 233.5,253.5C 233.5,252.833 233.5,252.167 233.5,251.5C 235.342,247.841 236.342,243.841 236.5,239.5C 236.7,236.37 237.366,233.37 238.5,230.5C 241.155,224.888 243.822,219.221 246.5,213.5C 248.727,212.599 249.727,210.933 249.5,208.5C 253.567,208.629 254.567,207.462 252.5,205C 255.36,202.447 257.026,199.28 257.5,195.5C 259.113,193.73 261.113,192.564 263.5,192C 262.97,189.864 263.803,188.03 266,186.5C 266.617,187.449 266.451,188.282 265.5,189C 266.332,189.688 266.998,189.521 267.5,188.5C 267.316,186.585 267.65,184.585 268.5,182.5C 270.833,179.5 273.5,176.833 276.5,174.5C 278.932,173.25 281.266,171.75 283.5,170C 285.167,169.667 286.833,169.333 288.5,169C 288.606,166.965 289.606,165.132 291.5,163.5C 300.359,156.704 310.359,152.038 321.5,149.5C 323.262,149.643 324.929,149.309 326.5,148.5C 327.167,149.167 327.833,149.833 328.5,150.5C 329.506,150.062 329.506,149.396 328.5,148.5C 331.474,146.841 334.474,145.508 337.5,144.5C 343.051,144.473 348.384,143.806 353.5,142.5 Z"/></g>
<g><path style="opacity:0.027" fill="#b0b0b0" d="M 375.5,142.5 C 375.5,142.167 375.5,141.833 375.5,141.5C 413.362,145.181 444.196,161.848 468,191.5C 469.094,193.078 469.928,194.745 470.5,196.5C 469.5,195.833 468.5,195.167 467.5,194.5C 466.92,192.251 465.587,190.585 463.5,189.5C 445.841,168.901 423.841,154.568 397.5,146.5C 390.337,144.223 383.003,142.889 375.5,142.5 Z"/></g>
<g><path style="opacity:0.996" fill="#272727" d="M 337.5,144.5 C 334.474,145.508 331.474,146.841 328.5,148.5C 329.506,149.396 329.506,150.062 328.5,150.5C 327.833,149.833 327.167,149.167 326.5,148.5C 324.929,149.309 323.262,149.643 321.5,149.5C 321.881,148.069 322.881,147.236 324.5,147C 328.787,145.847 333.121,145.013 337.5,144.5 Z"/></g>
<g><path style="opacity:0.997" fill="#2a2a2a" d="M 291.5,163.5 C 289.606,165.132 288.606,166.965 288.5,169C 286.833,169.333 285.167,169.667 283.5,170C 281.266,171.75 278.932,173.25 276.5,174.5C 280.652,169.682 285.652,166.015 291.5,163.5 Z"/></g>
<g><path style="opacity:0.997" fill="#272727" d="M 268.5,182.5 C 267.65,184.585 267.316,186.585 267.5,188.5C 266.998,189.521 266.332,189.688 265.5,189C 266.451,188.282 266.617,187.449 266,186.5C 263.803,188.03 262.97,189.864 263.5,192C 261.113,192.564 259.113,193.73 257.5,195.5C 260.456,190.601 264.123,186.268 268.5,182.5 Z"/></g>
<g><path style="opacity:1" fill="#5c5c5c" d="M 463.5,189.5 C 465.587,190.585 466.92,192.251 467.5,194.5C 465.413,193.415 464.08,191.749 463.5,189.5 Z"/></g>
<g><path style="opacity:0.31" fill="#b9b9b9" d="M 349.5,141.5 C 349.5,141.833 349.5,142.167 349.5,142.5C 345.295,142.717 341.295,143.383 337.5,144.5C 333.121,145.013 328.787,145.847 324.5,147C 322.881,147.236 321.881,148.069 321.5,149.5C 310.359,152.038 300.359,156.704 291.5,163.5C 285.652,166.015 280.652,169.682 276.5,174.5C 273.5,176.833 270.833,179.5 268.5,182.5C 264.123,186.268 260.456,190.601 257.5,195.5C 254.167,199.833 250.833,204.167 247.5,208.5C 263.725,178.447 288.058,157.947 320.5,147C 329.892,143.688 339.558,141.855 349.5,141.5 Z"/></g>
<g><path style="opacity:1" fill="#2a2a2a" d="M 257.5,195.5 C 257.026,199.28 255.36,202.447 252.5,205C 254.567,207.462 253.567,208.629 249.5,208.5C 249.727,210.933 248.727,212.599 246.5,213.5C 247.038,211.883 247.371,210.216 247.5,208.5C 250.833,204.167 254.167,199.833 257.5,195.5 Z"/></g>
<g><path style="opacity:0.051" fill="#bbbbbb" d="M 470.5,196.5 C 474.156,199.803 476.822,203.803 478.5,208.5C 477.833,208.167 477.167,207.833 476.5,207.5C 473.214,204.6 471.214,200.933 470.5,196.5 Z"/></g>
<g><path style="opacity:1" fill="#081219" d="M 393.5,217.5 C 390.126,216.142 386.793,214.809 383.5,213.5C 360.664,205.033 339.997,208.7 321.5,224.5C 321.843,221.281 321.176,219.114 319.5,218C 319.833,217.167 320.167,216.333 320.5,215.5C 321.833,216.833 323.167,218.167 324.5,219.5C 325.696,219.154 325.696,218.654 324.5,218C 329.382,215.887 334.048,213.22 338.5,210C 343.906,209.217 349.239,208.217 354.5,207C 361.102,206.259 367.602,206.759 374,208.5C 375.894,208.42 377.727,208.087 379.5,207.5C 382.43,208.451 384.763,210.117 386.5,212.5C 387.167,212.333 387.833,212.167 388.5,212C 387.304,211.346 387.304,210.846 388.5,210.5C 389.953,213.106 391.619,215.439 393.5,217.5 Z"/></g>
<g><path style="opacity:0.976" fill="#686868" d="M 476.5,207.5 C 477.167,207.833 477.833,208.167 478.5,208.5C 478.5,208.833 478.5,209.167 478.5,209.5C 478.833,210.833 479.167,212.167 479.5,213.5C 477.755,211.967 476.755,209.967 476.5,207.5 Z"/></g>
<g><path style="opacity:0.984" fill="#484848" d="M 479.5,213.5 C 481.915,216.34 483.248,219.673 483.5,223.5C 481.085,220.66 479.752,217.327 479.5,213.5 Z"/></g>
<g><path style="opacity:0.914" fill="#959595" d="M 247.5,208.5 C 247.371,210.216 247.038,211.883 246.5,213.5C 243.822,219.221 241.155,224.888 238.5,230.5C 239.038,228.883 239.371,227.216 239.5,225.5C 241.032,219.207 243.698,213.541 247.5,208.5 Z"/></g>
<g><path style="opacity:1" fill="#2fa7e7" d="M 383.5,213.5 C 387.812,218.63 393.146,222.463 399.5,225C 400.869,228.192 403.202,230.358 406.5,231.5C 408.836,236.175 411.669,240.508 415,244.5C 415.576,248.488 416.909,252.155 419,255.5C 420.356,269.298 418.689,282.631 414,295.5C 413,296.167 412,296.833 411,297.5C 410.01,300.955 408.844,304.288 407.5,307.5C 398.581,311.304 390.581,316.637 383.5,323.5C 382.5,323.5 381.5,323.5 380.5,323.5C 380.333,309.496 380.5,295.496 381,281.5C 385.108,280.583 388.941,278.917 392.5,276.5C 393.788,274.701 393.788,273.035 392.5,271.5C 391.487,265.827 390.487,260.16 389.5,254.5C 386.757,253.612 384.09,252.445 381.5,251C 382.167,250.667 382.833,250.333 383.5,250C 379.902,249.846 376.569,248.846 373.5,247C 374.416,246.626 375.25,246.126 376,245.5C 377.606,240.261 378.273,234.928 378,229.5C 370.243,217.895 360.243,215.562 348,222.5C 346.533,229.777 346.199,237.111 347,244.5C 349.167,246 349,247.167 346.5,248C 349.167,248.333 351.833,248.667 354.5,249C 354.957,249.414 355.291,249.914 355.5,250.5C 348.426,251.144 342.093,249.144 336.5,244.5C 336.167,245.167 335.833,245.833 335.5,246.5C 336.833,248.167 338.167,249.833 339.5,251.5C 337.237,255.624 335.571,259.958 334.5,264.5C 332.376,265.031 330.876,266.365 330,268.5C 329.179,271.554 329.345,274.554 330.5,277.5C 334.252,278.728 337.918,280.062 341.5,281.5C 342.666,294.821 342.833,308.154 342,321.5C 339.955,319.957 338.455,320.29 337.5,322.5C 336.833,322.5 336.167,322.5 335.5,322.5C 335.5,321.5 335.5,320.5 335.5,319.5C 333.217,319.392 331.217,318.559 329.5,317C 325.709,313.22 322.042,309.387 318.5,305.5C 317.264,304.754 315.93,304.421 314.5,304.5C 314.662,302.473 314.495,300.473 314,298.5C 311.257,296.02 309.257,293.02 308,289.5C 298.037,252.055 311.204,226.555 347.5,213C 352.099,211.969 356.765,211.469 361.5,211.5C 368.878,211.777 376.211,212.443 383.5,213.5 Z"/></g>
<g><path style="opacity:0.706" fill="#c4c4c4" d="M 478.5,209.5 C 480.81,212.102 482.643,215.102 484,218.5C 487.279,225.169 489.446,232.169 490.5,239.5C 489.5,237.5 488.5,235.5 487.5,233.5C 486.517,229.91 485.183,226.577 483.5,223.5C 483.248,219.673 481.915,216.34 479.5,213.5C 479.167,212.167 478.833,210.833 478.5,209.5 Z"/></g>
<g><path style="opacity:0.035" fill="#d2d2d2" d="M 239.5,225.5 C 239.371,227.216 239.038,228.883 238.5,230.5C 237.366,233.37 236.7,236.37 236.5,239.5C 235.833,240.167 235.167,240.833 234.5,241.5C 235.257,235.781 236.924,230.448 239.5,225.5 Z"/></g>
<g><path style="opacity:1" fill="#575757" d="M 487.5,233.5 C 488.5,235.5 489.5,237.5 490.5,239.5C 490.5,241.167 490.5,242.833 490.5,244.5C 488.926,241.093 487.926,237.427 487.5,233.5 Z"/></g>
<g><path style="opacity:0.976" fill="#5a5a5a" d="M 236.5,239.5 C 236.342,243.841 235.342,247.841 233.5,251.5C 234.051,248.193 234.384,244.86 234.5,241.5C 235.167,240.833 235.833,240.167 236.5,239.5 Z"/></g>
<g><path style="opacity:1" fill="#44a7da" d="M 392.5,271.5 C 388.432,266.394 385.099,260.727 382.5,254.5C 368.5,253.167 354.5,253.167 340.5,254.5C 338.461,257.929 336.461,261.263 334.5,264.5C 335.571,259.958 337.237,255.624 339.5,251.5C 338.167,249.833 336.833,248.167 335.5,246.5C 335.833,245.833 336.167,245.167 336.5,244.5C 342.093,249.144 348.426,251.144 355.5,250.5C 355.291,249.914 354.957,249.414 354.5,249C 351.833,248.667 349.167,248.333 346.5,248C 349,247.167 349.167,246 347,244.5C 346.199,237.111 346.533,229.777 348,222.5C 360.243,215.562 370.243,217.895 378,229.5C 378.273,234.928 377.606,240.261 376,245.5C 375.25,246.126 374.416,246.626 373.5,247C 376.569,248.846 379.902,249.846 383.5,250C 382.833,250.333 382.167,250.667 381.5,251C 384.09,252.445 386.757,253.612 389.5,254.5C 390.487,260.16 391.487,265.827 392.5,271.5 Z"/></g>
<g><path style="opacity:1" fill="#d7f7fc" d="M 356.5,220.5 C 365.294,219.193 371.461,222.526 375,230.5C 375.411,238.173 372.244,244.006 365.5,248C 349.744,248.378 344.244,240.878 349,225.5C 350.913,222.72 353.413,221.053 356.5,220.5 Z"/></g>
<g><path style="opacity:1" fill="#fcfefd" d="M 358.5,223.5 C 361.777,223.216 364.943,223.549 368,224.5C 368.778,227.184 370.111,229.517 372,231.5C 372.497,234.146 372.664,236.813 372.5,239.5C 368.078,241.444 364.245,243.444 361,245.5C 349.525,242.586 346.692,235.92 352.5,225.5C 354.631,224.831 356.631,224.165 358.5,223.5 Z"/></g>
<g><path style="opacity:0.102" fill="#dcdcdc" d="M 234.5,241.5 C 234.384,244.86 234.051,248.193 233.5,251.5C 233.5,252.167 233.5,252.833 233.5,253.5C 232.833,255.167 232.167,256.833 231.5,258.5C 231.42,252.522 232.42,246.855 234.5,241.5 Z"/></g>
<g><path style="opacity:1" fill="#ecfbfc" d="M 392.5,271.5 C 392.67,272.822 392.337,273.989 391.5,275C 387.09,276.551 382.757,278.051 378.5,279.5C 378.167,279.5 377.833,279.5 377.5,279.5C 377.351,278.448 377.517,277.448 378,276.5C 380.203,274.666 382.37,272.832 384.5,271C 383.61,268.609 381.943,267.109 379.5,266.5C 379.719,265.325 379.386,264.325 378.5,263.5C 376.142,264.154 374.475,265.487 373.5,267.5C 372.833,266.833 372.167,266.167 371.5,265.5C 368.833,265.5 366.167,265.5 363.5,265.5C 359.659,263.997 355.659,262.664 351.5,261.5C 349.565,260.291 347.565,260.458 345.5,262C 348.097,262.779 348.097,263.279 345.5,263.5C 343.25,265.244 341.083,267.244 339,269.5C 338.26,270.749 338.427,271.749 339.5,272.5C 340.167,272.833 340.833,273.167 341.5,273.5C 343.385,275.053 344.385,277.053 344.5,279.5C 343.833,279.5 343.5,279.833 343.5,280.5C 339.226,278.524 334.892,276.857 330.5,275.5C 330.984,271.53 332.317,267.864 334.5,264.5C 336.461,261.263 338.461,257.929 340.5,254.5C 354.5,253.167 368.5,253.167 382.5,254.5C 385.099,260.727 388.432,266.394 392.5,271.5 Z"/></g>
<g><path style="opacity:1" fill="#5a9abd" d="M 383.5,213.5 C 386.793,214.809 390.126,216.142 393.5,217.5C 410.365,228.238 420.032,243.571 422.5,263.5C 422.512,276.109 419.845,288.109 414.5,299.5C 413.094,299.973 412.427,300.973 412.5,302.5C 410.473,303.861 408.806,305.527 407.5,307.5C 408.844,304.288 410.01,300.955 411,297.5C 412,296.833 413,296.167 414,295.5C 418.689,282.631 420.356,269.298 419,255.5C 416.909,252.155 415.576,248.488 415,244.5C 411.669,240.508 408.836,236.175 406.5,231.5C 403.202,230.358 400.869,228.192 399.5,225C 393.146,222.463 387.812,218.63 383.5,213.5 Z"/></g>
<g><path style="opacity:1" fill="#33a6e3" d="M 363.5,265.5 C 365.091,266.219 366.591,267.219 368,268.5C 368.5,277.827 368.666,287.161 368.5,296.5C 366.784,296.371 365.117,296.038 363.5,295.5C 363.5,294.167 363.5,292.833 363.5,291.5C 362.167,291.5 360.833,291.5 359.5,291.5C 358.702,301.344 358.036,311.344 357.5,321.5C 355.833,321.5 354.167,321.5 352.5,321.5C 352.5,312.167 352.5,302.833 352.5,293.5C 354.04,288.935 354.707,284.102 354.5,279C 354.705,273.941 354.038,269.108 352.5,264.5C 356.179,264.724 359.846,265.058 363.5,265.5 Z"/></g>
<g><path style="opacity:0.031" fill="#cdcdcd" d="M 231.5,260.5 C 231.178,266.358 231.511,272.025 232.5,277.5C 232.5,279.167 232.5,280.833 232.5,282.5C 232.5,284.833 232.5,287.167 232.5,289.5C 231.047,283.733 230.38,277.733 230.5,271.5C 230.501,267.651 230.835,263.984 231.5,260.5 Z"/></g>
<g><path style="opacity:0.984" fill="#686868" d="M 233.5,253.5 C 232.834,261.483 232.501,269.483 232.5,277.5C 231.511,272.025 231.178,266.358 231.5,260.5C 231.5,259.833 231.5,259.167 231.5,258.5C 232.167,256.833 232.833,255.167 233.5,253.5 Z"/></g>
<g><path style="opacity:1" fill="#224258" d="M 304.5,252.5 C 302.819,260.731 302.153,269.064 302.5,277.5C 301.347,271.681 301.181,265.681 302,259.5C 302.39,256.896 303.224,254.562 304.5,252.5 Z"/></g>
<g><path style="opacity:0.993" fill="#575757" d="M 492.5,253.5 C 493.659,264.659 493.826,275.992 493,287.5C 492.243,289.315 491.41,290.981 490.5,292.5C 492.326,279.593 492.992,266.593 492.5,253.5 Z"/></g>
<g><path style="opacity:1" fill="#3da2d8" d="M 341.5,273.5 C 340.833,273.167 340.167,272.833 339.5,272.5C 340.588,268.896 342.921,267.063 346.5,267C 348.344,269.804 349.011,272.97 348.5,276.5C 345.962,275.957 343.628,274.957 341.5,273.5 Z"/></g>
<g><path style="opacity:0.5" fill="#d1d1d1" d="M 490.5,239.5 C 495.351,255.423 496.518,271.756 494,288.5C 493.276,292.427 492.109,296.094 490.5,299.5C 490.5,298.167 490.5,296.833 490.5,295.5C 490.5,294.5 490.5,293.5 490.5,292.5C 491.41,290.981 492.243,289.315 493,287.5C 493.826,275.992 493.659,264.659 492.5,253.5C 491.525,250.689 490.858,247.689 490.5,244.5C 490.5,242.833 490.5,241.167 490.5,239.5 Z"/></g>
<g><path style="opacity:1" fill="#45a6d7" d="M 379.5,266.5 C 381.943,267.109 383.61,268.609 384.5,271C 382.37,272.832 380.203,274.666 378,276.5C 377.517,277.448 377.351,278.448 377.5,279.5C 376.833,279.5 376.167,279.5 375.5,279.5C 374.09,275.319 374.424,271.153 376.5,267C 377.448,266.517 378.448,266.351 379.5,266.5 Z"/></g>
<g><path style="opacity:1" fill="#4aa2c9" d="M 351.5,261.5 C 355.659,262.664 359.659,263.997 363.5,265.5C 359.846,265.058 356.179,264.724 352.5,264.5C 354.038,269.108 354.705,273.941 354.5,279C 354.707,284.102 354.04,288.935 352.5,293.5C 352.666,285.493 352.5,277.493 352,269.5C 351.869,266.629 350.703,264.295 348.5,262.5C 349.325,261.614 350.325,261.281 351.5,261.5 Z"/></g>
<g><path style="opacity:1" fill="#50a3c8" d="M 363.5,265.5 C 366.167,265.5 368.833,265.5 371.5,265.5C 369.115,276.18 369.115,286.846 371.5,297.5C 368.914,298.48 366.247,298.813 363.5,298.5C 363.5,297.5 363.5,296.5 363.5,295.5C 365.117,296.038 366.784,296.371 368.5,296.5C 368.666,287.161 368.5,277.827 368,268.5C 366.591,267.219 365.091,266.219 363.5,265.5 Z"/></g>
<g><path style="opacity:1" fill="#5fa9cb" d="M 345.5,263.5 C 346.688,264.364 347.855,265.364 349,266.5C 351.142,276.358 350.975,286.025 348.5,295.5C 348.167,295.5 347.833,295.5 347.5,295.5C 347.821,289.974 347.488,284.64 346.5,279.5C 345.833,279.5 345.167,279.5 344.5,279.5C 344.385,277.053 343.385,275.053 341.5,273.5C 343.628,274.957 345.962,275.957 348.5,276.5C 349.011,272.97 348.344,269.804 346.5,267C 342.921,267.063 340.588,268.896 339.5,272.5C 338.427,271.749 338.26,270.749 339,269.5C 341.083,267.244 343.25,265.244 345.5,263.5 Z"/></g>
<g><path style="opacity:1" fill="#04182b" d="M 375.5,279.5 C 376.167,279.5 376.833,279.5 377.5,279.5C 377.833,279.5 378.167,279.5 378.5,279.5C 378.5,279.833 378.5,280.167 378.5,280.5C 379.15,295.538 378.483,310.205 376.5,324.5C 375.504,309.676 375.171,294.676 375.5,279.5 Z"/></g>
<g><path style="opacity:1" fill="#0f181f" d="M 422.5,263.5 C 423.743,269.18 423.743,275.013 422.5,281C 423.418,283.086 424.085,285.253 424.5,287.5C 423.022,287.238 421.689,287.571 420.5,288.5C 419.77,291.109 419.27,293.776 419,296.5C 417.6,297.748 416.1,298.748 414.5,299.5C 419.845,288.109 422.512,276.109 422.5,263.5 Z"/></g>
<g><path style="opacity:1" fill="#4ea0c9" d="M 334.5,264.5 C 332.317,267.864 330.984,271.53 330.5,275.5C 334.892,276.857 339.226,278.524 343.5,280.5C 343.5,294.833 343.5,309.167 343.5,323.5C 343.158,324.338 342.492,324.672 341.5,324.5C 339.847,324.34 338.514,323.674 337.5,322.5C 338.455,320.29 339.955,319.957 342,321.5C 342.833,308.154 342.666,294.821 341.5,281.5C 337.918,280.062 334.252,278.728 330.5,277.5C 329.345,274.554 329.179,271.554 330,268.5C 330.876,266.365 332.376,265.031 334.5,264.5 Z"/></g>
<g><path style="opacity:1" fill="#4ca0cc" d="M 392.5,271.5 C 393.788,273.035 393.788,274.701 392.5,276.5C 388.941,278.917 385.108,280.583 381,281.5C 380.5,295.496 380.333,309.496 380.5,323.5C 381.5,323.5 382.5,323.5 383.5,323.5C 382.432,324.434 381.099,324.768 379.5,324.5C 379.829,309.657 379.496,294.99 378.5,280.5C 378.5,280.167 378.5,279.833 378.5,279.5C 382.757,278.051 387.09,276.551 391.5,275C 392.337,273.989 392.67,272.822 392.5,271.5 Z"/></g>
<g><path style="opacity:0.306" fill="#a3a3a3" d="M 232.5,282.5 C 235.025,291.958 237.025,301.624 238.5,311.5C 235.898,304.434 233.898,297.101 232.5,289.5C 232.5,287.167 232.5,284.833 232.5,282.5 Z"/></g>
<g><path style="opacity:1" fill="#c4f7fc" d="M 351.5,261.5 C 350.325,261.281 349.325,261.614 348.5,262.5C 350.703,264.295 351.869,266.629 352,269.5C 352.5,277.493 352.666,285.493 352.5,293.5C 351.342,302.991 351.175,312.658 352,322.5C 355.089,325.309 357.422,324.643 359,320.5C 359.5,310.839 359.666,301.172 359.5,291.5C 360.833,291.5 362.167,291.5 363.5,291.5C 363.5,292.833 363.5,294.167 363.5,295.5C 363.5,296.5 363.5,297.5 363.5,298.5C 362.837,296.958 362.17,295.291 361.5,293.5C 360.337,299.137 360.17,304.804 361,310.5C 361.383,311.056 361.883,311.389 362.5,311.5C 362.5,312.5 362.5,313.5 362.5,314.5C 362.297,316.044 361.63,317.378 360.5,318.5C 361.456,320.075 362.123,321.742 362.5,323.5C 360.521,325.101 358.355,326.434 356,327.5C 353.594,327.297 351.594,326.297 350,324.5C 348.58,314.914 348.08,305.247 348.5,295.5C 350.975,286.025 351.142,276.358 349,266.5C 347.855,265.364 346.688,264.364 345.5,263.5C 348.097,263.279 348.097,262.779 345.5,262C 347.565,260.458 349.565,260.291 351.5,261.5 Z"/></g>
<g><path style="opacity:1" fill="#4892bb" d="M 383.5,213.5 C 376.211,212.443 368.878,211.777 361.5,211.5C 356.765,211.469 352.099,211.969 347.5,213C 311.204,226.555 298.037,252.055 308,289.5C 309.257,293.02 311.257,296.02 314,298.5C 314.495,300.473 314.662,302.473 314.5,304.5C 315.93,304.421 317.264,304.754 318.5,305.5C 322.042,309.387 325.709,313.22 329.5,317C 331.217,318.559 333.217,319.392 335.5,319.5C 335.5,320.5 335.5,321.5 335.5,322.5C 330.342,320.357 325.675,317.357 321.5,313.5C 310.997,303.833 304.664,291.833 302.5,277.5C 302.153,269.064 302.819,260.731 304.5,252.5C 304.343,251.127 304.51,249.793 305,248.5C 307.902,243.701 310.568,238.701 313,233.5C 315.362,229.973 318.196,226.973 321.5,224.5C 339.997,208.7 360.664,205.033 383.5,213.5 Z"/></g>
<g><path style="opacity:1" fill="#64a2c4" d="M 379.5,266.5 C 378.448,266.351 377.448,266.517 376.5,267C 374.424,271.153 374.09,275.319 375.5,279.5C 375.171,294.676 375.504,309.676 376.5,324.5C 376.5,325.167 376.5,325.833 376.5,326.5C 374.283,327.369 371.95,327.702 369.5,327.5C 370.801,326.36 371.968,325.027 373,323.5C 372.999,304.813 373.165,286.147 373.5,267.5C 374.475,265.487 376.142,264.154 378.5,263.5C 379.386,264.325 379.719,265.325 379.5,266.5 Z"/></g>
<g><path style="opacity:1" fill="#02172e" d="M 344.5,279.5 C 345.167,279.5 345.833,279.5 346.5,279.5C 347.15,294.538 346.483,309.205 344.5,323.5C 344.167,323.5 343.833,323.5 343.5,323.5C 343.5,309.167 343.5,294.833 343.5,280.5C 343.5,279.833 343.833,279.5 344.5,279.5 Z"/></g>
<g><path style="opacity:1" fill="#274f64" d="M 346.5,279.5 C 347.488,284.64 347.821,289.974 347.5,295.5C 347.5,305.167 347.5,314.833 347.5,324.5C 346.209,324.737 345.209,324.404 344.5,323.5C 346.483,309.205 347.15,294.538 346.5,279.5 Z"/></g>
<g><path style="opacity:0.812" fill="#7c7c7c" d="M 490.5,295.5 C 490.5,296.833 490.5,298.167 490.5,299.5C 490.768,301.099 490.434,302.432 489.5,303.5C 488.833,304.167 488.167,304.833 487.5,305.5C 487.804,302.478 488.304,299.478 489,296.5C 489.383,295.944 489.883,295.611 490.5,295.5 Z"/></g>
<g><path style="opacity:1" fill="#2c607f" d="M 378.5,280.5 C 379.496,294.99 379.829,309.657 379.5,324.5C 381.099,324.768 382.432,324.434 383.5,323.5C 385.216,323.371 386.883,323.038 388.5,322.5C 386.066,324.874 383.066,326.208 379.5,326.5C 378.5,326.5 377.5,326.5 376.5,326.5C 376.5,325.833 376.5,325.167 376.5,324.5C 378.483,310.205 379.15,295.538 378.5,280.5 Z"/></g>
<g><path style="opacity:1" fill="#67a2ae" d="M 362.5,311.5 C 368.55,312.058 369.05,314.058 364,317.5C 363.768,316.263 363.268,315.263 362.5,314.5C 362.5,313.5 362.5,312.5 362.5,311.5 Z"/></g>
<g><path style="opacity:1" fill="#50a2cc" d="M 359.5,291.5 C 359.666,301.172 359.5,310.839 359,320.5C 357.422,324.643 355.089,325.309 352,322.5C 351.175,312.658 351.342,302.991 352.5,293.5C 352.5,302.833 352.5,312.167 352.5,321.5C 354.167,321.5 355.833,321.5 357.5,321.5C 358.036,311.344 358.702,301.344 359.5,291.5 Z"/></g>
<g><path style="opacity:1" fill="#d7f8fb" d="M 371.5,265.5 C 372.167,266.167 372.833,266.833 373.5,267.5C 373.165,286.147 372.999,304.813 373,323.5C 371.968,325.027 370.801,326.36 369.5,327.5C 366.077,327.876 363.744,326.543 362.5,323.5C 362.123,321.742 361.456,320.075 360.5,318.5C 361.63,317.378 362.297,316.044 362.5,314.5C 363.268,315.263 363.768,316.263 364,317.5C 369.05,314.058 368.55,312.058 362.5,311.5C 361.883,311.389 361.383,311.056 361,310.5C 360.17,304.804 360.337,299.137 361.5,293.5C 362.17,295.291 362.837,296.958 363.5,298.5C 366.247,298.813 368.914,298.48 371.5,297.5C 369.115,286.846 369.115,276.18 371.5,265.5 Z"/></g>
<g><path style="opacity:1" fill="#63a2be" d="M 369.5,303.5 C 370.748,304.334 371.415,305.667 371.5,307.5C 371.333,308.833 371.167,310.167 371,311.5C 369.155,310.95 367.655,309.95 366.5,308.5C 367.763,306.971 368.763,305.305 369.5,303.5 Z"/></g>
<g><path style="opacity:1" fill="#6f9ea7" d="M 363.5,301.5 C 368.272,301.367 368.438,302.7 364,305.5C 363.51,304.207 363.343,302.873 363.5,301.5 Z"/></g>
<g><path style="opacity:0.067" fill="#d1d1d1" d="M 489.5,303.5 C 488.806,308.915 487.14,313.915 484.5,318.5C 484.993,316.194 485.326,313.861 485.5,311.5C 487.074,309.898 487.741,307.898 487.5,305.5C 488.167,304.833 488.833,304.167 489.5,303.5 Z"/></g>
<g><path style="opacity:1" fill="#122330" d="M 412.5,302.5 C 410.176,306.477 407.843,310.477 405.5,314.5C 403.827,316.086 401.827,316.753 399.5,316.5C 402.144,313.52 404.811,310.52 407.5,307.5C 408.806,305.527 410.473,303.861 412.5,302.5 Z"/></g>
<g><path style="opacity:0.537" fill="#adadad" d="M 238.5,311.5 C 240.717,314.775 242.384,318.442 243.5,322.5C 244.075,325.912 245.408,328.912 247.5,331.5C 250.355,340.209 254.022,348.542 258.5,356.5C 258.629,358.216 258.962,359.883 259.5,361.5C 253.513,350.187 248.013,338.52 243,326.5C 241.484,321.479 239.984,316.479 238.5,311.5 Z"/></g>
<g><path style="opacity:1" fill="#489ece" d="M 407.5,307.5 C 404.811,310.52 402.144,313.52 399.5,316.5C 395.673,318.246 392.007,320.246 388.5,322.5C 386.883,323.038 385.216,323.371 383.5,323.5C 390.581,316.637 398.581,311.304 407.5,307.5 Z"/></g>
<g><path style="opacity:1" fill="#69a2b8" d="M 369.5,315.5 C 371.176,316.183 371.843,317.517 371.5,319.5C 367.155,319.702 366.488,318.369 369.5,315.5 Z"/></g>
<g><path style="opacity:1" fill="#7ca3ab" d="M 364.5,322.5 C 366.604,322.201 368.604,322.534 370.5,323.5C 369.5,323.833 368.5,324.167 367.5,324.5C 365.97,324.36 364.97,323.693 364.5,322.5 Z"/></g>
<g><path style="opacity:1" fill="#4c4c4c" d="M 243.5,322.5 C 245.974,324.898 247.308,327.898 247.5,331.5C 245.408,328.912 244.075,325.912 243.5,322.5 Z"/></g>
<g><path style="opacity:1" fill="#6295ac" d="M 347.5,295.5 C 347.833,295.5 348.167,295.5 348.5,295.5C 348.08,305.247 348.58,314.914 350,324.5C 351.594,326.297 353.594,327.297 356,327.5C 358.355,326.434 360.521,325.101 362.5,323.5C 363.744,326.543 366.077,327.876 369.5,327.5C 363.681,328.653 357.681,328.819 351.5,328C 347.837,327.428 344.503,326.262 341.5,324.5C 342.492,324.672 343.158,324.338 343.5,323.5C 343.833,323.5 344.167,323.5 344.5,323.5C 345.209,324.404 346.209,324.737 347.5,324.5C 347.5,314.833 347.5,305.167 347.5,295.5 Z"/></g>
<g><path style="opacity:1" fill="#0c1420" d="M 321.5,313.5 C 325.675,317.357 330.342,320.357 335.5,322.5C 336.167,322.5 336.833,322.5 337.5,322.5C 338.514,323.674 339.847,324.34 341.5,324.5C 344.503,326.262 347.837,327.428 351.5,328C 357.681,328.819 363.681,328.653 369.5,327.5C 371.95,327.702 374.283,327.369 376.5,326.5C 377.5,326.5 378.5,326.5 379.5,326.5C 378.4,327.558 377.066,328.392 375.5,329C 366.472,329.221 357.472,329.721 348.5,330.5C 346.181,329.936 343.847,329.436 341.5,329C 339.667,328.5 338.5,327.333 338,325.5C 336.401,327.036 334.567,327.536 332.5,327C 329.758,325.114 328.091,322.614 327.5,319.5C 324.184,318.851 322.184,316.851 321.5,313.5 Z"/></g>
<g><path style="opacity:0.757" fill="#999999" d="M 485.5,311.5 C 485.326,313.861 484.993,316.194 484.5,318.5C 481.494,329.497 477.161,339.83 471.5,349.5C 475.595,336.539 480.262,323.873 485.5,311.5 Z"/></g>
<g><path style="opacity:1" fill="#333333" d="M 258.5,356.5 C 261.486,359.477 263.152,363.144 263.5,367.5C 262.455,365.23 261.121,363.23 259.5,361.5C 258.962,359.883 258.629,358.216 258.5,356.5 Z"/></g>
<g><path style="opacity:0.392" fill="#939393" d="M 471.5,349.5 C 470.969,352.237 470.136,354.904 469,357.5C 466.327,363.52 463.16,369.187 459.5,374.5C 459.343,373.127 459.51,371.793 460,370.5C 463.123,365.918 465.457,360.918 467,355.5C 468.594,353.474 470.094,351.474 471.5,349.5 Z"/></g>
<g><path style="opacity:0.055" fill="#9f9f9f" d="M 259.5,361.5 C 261.121,363.23 262.455,365.23 263.5,367.5C 265.585,369.684 266.585,372.351 266.5,375.5C 263.132,371.431 260.799,366.764 259.5,361.5 Z"/></g>
<g><path style="opacity:0.012" fill="#bcbcbc" d="M 266.5,375.5 C 268.341,377.849 269.674,380.515 270.5,383.5C 268.127,381.421 266.794,378.754 266.5,375.5 Z"/></g>
<g><path style="opacity:0.188" fill="#999999" d="M 459.5,374.5 C 459.346,376.97 458.346,378.97 456.5,380.5C 456.461,377.911 457.461,375.911 459.5,374.5 Z"/></g>
<g><path style="opacity:0.392" fill="#9d9d9d" d="M 456.5,380.5 C 454.281,386.607 451.281,392.273 447.5,397.5C 449.221,391.124 452.221,385.457 456.5,380.5 Z"/></g>
<g><path style="opacity:0.439" fill="#8b8b8b" d="M 447.5,397.5 C 445.177,404.153 441.844,410.153 437.5,415.5C 438.781,410.938 440.614,406.604 443,402.5C 444.067,400.308 445.567,398.642 447.5,397.5 Z"/></g>
<g><path style="opacity:0.184" fill="#818181" d="M 270.5,383.5 C 271.496,383.414 272.329,383.748 273,384.5C 275.41,390.318 278.077,395.985 281,401.5C 293.78,422.456 305.947,443.789 317.5,465.5C 300.21,439.182 284.543,411.849 270.5,383.5 Z"/></g>
<g><path style="opacity:0.212" fill="#838383" d="M 437.5,415.5 C 426.622,435.873 415.122,455.873 403,475.5C 401.961,476.71 400.794,477.71 399.5,478.5C 411.308,459.528 422.474,440.195 433,420.5C 434.067,418.308 435.567,416.642 437.5,415.5 Z"/></g>
<g><path style="opacity:1" fill="#3a3a3a" d="M 459.5,436.5 C 455.572,435.976 452.239,436.976 449.5,439.5C 449.751,437.83 450.418,436.33 451.5,435C 454.419,434.567 457.086,435.067 459.5,436.5 Z"/></g>
<g><path style="opacity:0.999" fill="#050505" d="M 283.5,459.5 C 278.227,460.77 272.894,461.936 267.5,463C 266.944,463.383 266.611,463.883 266.5,464.5C 261.136,465.337 255.803,466.504 250.5,468C 248.767,469.189 247.1,470.356 245.5,471.5C 242.784,471.678 240.117,472.178 237.5,473C 234.617,475.546 231.283,477.213 227.5,478C 224.14,481.128 220.473,483.795 216.5,486C 215.252,487.4 214.252,488.9 213.5,490.5C 213.167,491.5 212.5,492.167 211.5,492.5C 207.663,496.231 206.663,500.565 208.5,505.5C 210.846,509.508 213.846,512.841 217.5,515.5C 218.539,517.531 220.205,518.864 222.5,519.5C 222.833,519.5 223.167,519.5 223.5,519.5C 228.202,524.804 234.202,528.138 241.5,529.5C 244.653,531.885 248.32,533.218 252.5,533.5C 263.471,538.635 275.138,541.635 287.5,542.5C 289.811,544.068 292.478,544.902 295.5,545C 324.782,550.321 354.115,551.821 383.5,549.5C 393.162,548.778 402.829,548.111 412.5,547.5C 420.503,546.444 428.503,545.277 436.5,544C 437.416,543.722 438.082,543.222 438.5,542.5C 438.833,542.5 439.167,542.5 439.5,542.5C 442.152,542.59 444.485,541.924 446.5,540.5C 450.837,540.416 454.837,539.416 458.5,537.5C 464.962,536.574 471.296,535.074 477.5,533C 481.346,531.914 484.68,530.081 487.5,527.5C 499.934,523.695 509.767,516.362 517,505.5C 517.667,502.833 517.667,500.167 517,497.5C 516.722,496.584 516.222,495.918 515.5,495.5C 514.232,491.233 511.565,488.233 507.5,486.5C 502.21,480.18 495.544,475.846 487.5,473.5C 479.661,470.461 471.661,467.794 463.5,465.5C 459.498,463.39 455.165,462.057 450.5,461.5C 446.524,460.705 442.524,460.038 438.5,459.5C 438.491,457.692 438.991,456.025 440,454.5C 442.662,449.175 445.829,444.175 449.5,439.5C 452.239,436.976 455.572,435.976 459.5,436.5C 462.167,436.833 464.833,437.167 467.5,437.5C 470.961,440.042 474.961,441.375 479.5,441.5C 487.087,445.374 495.087,448.374 503.5,450.5C 504.957,452.785 506.957,454.618 509.5,456C 521.142,461.483 530.808,469.316 538.5,479.5C 539.791,483.052 541.458,486.386 543.5,489.5C 543.876,498.235 543.376,506.902 542,515.5C 537.361,524.15 531.194,531.65 523.5,538C 514.366,543.974 505.032,549.474 495.5,554.5C 493.801,554.34 492.134,554.506 490.5,555C 481.292,558.081 472.292,561.581 463.5,565.5C 463.167,565.5 462.833,565.5 462.5,565.5C 457.432,565.245 452.766,566.245 448.5,568.5C 448.167,568.5 447.833,568.5 447.5,568.5C 434.898,570.656 422.231,572.489 409.5,574C 408.584,574.278 407.918,574.778 407.5,575.5C 406.833,575.5 406.167,575.5 405.5,575.5C 377.497,576.731 349.497,576.731 321.5,575.5C 315.274,575.612 309.274,574.946 303.5,573.5C 298.71,572.275 293.71,571.608 288.5,571.5C 288.167,571.5 287.833,571.5 287.5,571.5C 287.5,571.167 287.5,570.833 287.5,570.5C 282.557,568.111 277.223,566.777 271.5,566.5C 264.828,564.833 258.162,563.166 251.5,561.5C 247.767,559.589 243.767,558.256 239.5,557.5C 233.715,556.009 228.381,553.676 223.5,550.5C 220.347,548.115 216.68,546.782 212.5,546.5C 211.292,543.956 209.292,542.622 206.5,542.5C 204.131,541.31 202.131,539.643 200.5,537.5C 194.363,530.715 188.696,523.715 183.5,516.5C 179.401,501.765 181.567,488.098 190,475.5C 193.343,472.324 196.51,468.991 199.5,465.5C 203.694,462.571 208.027,459.905 212.5,457.5C 216.854,455.098 221.187,452.598 225.5,450C 233.539,447.494 241.205,444.327 248.5,440.5C 248.833,440.5 249.167,440.5 249.5,440.5C 255.191,439.16 260.858,437.66 266.5,436C 269.227,435.182 271.894,435.348 274.5,436.5C 278.913,443.499 282.913,450.666 286.5,458C 285.756,459.039 284.756,459.539 283.5,459.5 Z"/></g>
<g><path style="opacity:0.545" fill="#989898" d="M 467.5,437.5 C 471.915,437.861 475.915,439.194 479.5,441.5C 474.961,441.375 470.961,440.042 467.5,437.5 Z"/></g>
<g><path style="opacity:0.016" fill="#a7a7a7" d="M 281.5,461.5 C 282.167,460.833 282.833,460.167 283.5,459.5C 284.756,459.539 285.756,459.039 286.5,458C 282.913,450.666 278.913,443.499 274.5,436.5C 271.894,435.348 269.227,435.182 266.5,436C 260.858,437.66 255.191,439.16 249.5,440.5C 251.858,438.871 254.524,437.705 257.5,437C 263.382,435.026 269.382,434.026 275.5,434C 280.026,442.216 284.693,450.383 289.5,458.5C 287.575,461.172 284.908,462.172 281.5,461.5 Z"/></g>
<g><path style="opacity:0.753" fill="#7d7d7d" d="M 248.5,440.5 C 241.205,444.327 233.539,447.494 225.5,450C 221.187,452.598 216.854,455.098 212.5,457.5C 212.833,456.833 213.167,456.167 213.5,455.5C 224.236,448.64 235.902,443.64 248.5,440.5 Z"/></g>
<g><path style="opacity:0.22" fill="#a6a6a6" d="M 479.5,441.5 C 488.011,443.334 496.011,446.334 503.5,450.5C 495.087,448.374 487.087,445.374 479.5,441.5 Z"/></g>
<g><path style="opacity:0.153" fill="#a1a1a1" d="M 503.5,450.5 C 515.942,455.812 526.776,463.479 536,473.5C 537.559,475.217 538.392,477.217 538.5,479.5C 530.808,469.316 521.142,461.483 509.5,456C 506.957,454.618 504.957,452.785 503.5,450.5 Z"/></g>
<g><path style="opacity:0.224" fill="#b2b2b2" d="M 213.5,455.5 C 213.167,456.167 212.833,456.833 212.5,457.5C 208.027,459.905 203.694,462.571 199.5,465.5C 199.511,463.983 200.177,462.816 201.5,462C 205.155,459.173 209.155,457.007 213.5,455.5 Z"/></g>
<g><path style="opacity:0.424" fill="#adadad" d="M 467.5,437.5 C 464.833,437.167 462.167,436.833 459.5,436.5C 457.086,435.067 454.419,434.567 451.5,435C 450.418,436.33 449.751,437.83 449.5,439.5C 445.829,444.175 442.662,449.175 440,454.5C 438.991,456.025 438.491,457.692 438.5,459.5C 442.524,460.038 446.524,460.705 450.5,461.5C 450.5,461.833 450.5,462.167 450.5,462.5C 447.161,462.11 443.827,461.61 440.5,461C 438.427,460.882 437.093,459.882 436.5,458C 440.867,450.101 445.367,442.268 450,434.5C 456.146,433.661 461.979,434.661 467.5,437.5 Z"/></g>
<g><path style="opacity:0.388" fill="#777777" d="M 283.5,459.5 C 282.833,460.167 282.167,460.833 281.5,461.5C 276.531,462.627 271.531,463.627 266.5,464.5C 266.611,463.883 266.944,463.383 267.5,463C 272.894,461.936 278.227,460.77 283.5,459.5 Z"/></g>
<g><path style="opacity:0.475" fill="#666666" d="M 450.5,462.5 C 450.5,462.167 450.5,461.833 450.5,461.5C 455.165,462.057 459.498,463.39 463.5,465.5C 459.1,464.698 454.767,463.698 450.5,462.5 Z"/></g>
<g><path style="opacity:0.231" fill="#8a8a8a" d="M 266.5,464.5 C 259.811,467.396 252.811,469.73 245.5,471.5C 247.1,470.356 248.767,469.189 250.5,468C 255.803,466.504 261.136,465.337 266.5,464.5 Z"/></g>
<g><path style="opacity:0.443" fill="#7e7e7e" d="M 317.5,465.5 C 321.391,468.923 324.058,473.256 325.5,478.5C 324.542,478.047 323.708,477.381 323,476.5C 321.14,472.78 319.307,469.114 317.5,465.5 Z"/></g>
<g><path style="opacity:0.09" fill="#979797" d="M 463.5,465.5 C 471.661,467.794 479.661,470.461 487.5,473.5C 487.833,474.167 488.167,474.833 488.5,475.5C 479.931,472.538 471.598,469.204 463.5,465.5 Z"/></g>
<g><path style="opacity:0.227" fill="#797979" d="M 245.5,471.5 C 233.832,476.172 223.166,482.505 213.5,490.5C 214.252,488.9 215.252,487.4 216.5,486C 220.473,483.795 224.14,481.128 227.5,478C 231.283,477.213 234.617,475.546 237.5,473C 240.117,472.178 242.784,471.678 245.5,471.5 Z"/></g>
<g><path style="opacity:0.592" fill="#707070" d="M 487.5,473.5 C 495.544,475.846 502.21,480.18 507.5,486.5C 501.358,482.592 495.024,478.926 488.5,475.5C 488.167,474.833 487.833,474.167 487.5,473.5 Z"/></g>
<g><path style="opacity:0.659" fill="#7a7a7a" d="M 325.5,478.5 C 329.053,481.245 331.386,484.911 332.5,489.5C 329.421,486.35 327.087,482.683 325.5,478.5 Z"/></g>
<g><path style="opacity:0.427" fill="#ababab" d="M 538.5,479.5 C 541.741,481.983 543.408,485.316 543.5,489.5C 541.458,486.386 539.791,483.052 538.5,479.5 Z"/></g>
<g><path style="opacity:0.569" fill="#8d8d8d" d="M 507.5,486.5 C 511.565,488.233 514.232,491.233 515.5,495.5C 512.862,492.526 510.195,489.526 507.5,486.5 Z"/></g>
<g><path style="opacity:0.235" fill="#8a8a8a" d="M 399.5,478.5 C 399.509,480.308 399.009,481.975 398,483.5C 391.272,493.233 384.938,503.233 379,513.5C 377.961,514.71 376.794,515.71 375.5,516.5C 382.58,503.269 390.58,490.602 399.5,478.5 Z"/></g>
<g><path style="opacity:0.857" fill="#979797" d="M 199.5,465.5 C 196.51,468.991 193.343,472.324 190,475.5C 181.567,488.098 179.401,501.765 183.5,516.5C 179.236,507.316 178.736,497.649 182,487.5C 185.24,477.978 191.073,470.645 199.5,465.5 Z"/></g>
<g><path style="opacity:0.608" fill="#888888" d="M 332.5,489.5 C 337.283,494.463 341.116,500.13 344,506.5C 350.162,515.486 356.328,524.486 362.5,533.5C 366.509,527.503 370.842,521.836 375.5,516.5C 372.262,522.641 368.762,528.641 365,534.5C 363.506,535.747 362.006,535.747 360.5,534.5C 350.894,519.612 341.561,504.612 332.5,489.5 Z"/></g>
<g><path style="opacity:0.367" fill="#5a5a5a" d="M 211.5,492.5 C 210.833,494.5 210.167,496.5 209.5,498.5C 208.532,500.607 208.198,502.941 208.5,505.5C 206.663,500.565 207.663,496.231 211.5,492.5 Z"/></g>
<g><path style="opacity:0.008" fill="#9b9b9b" d="M 209.5,498.5 C 209.351,501.607 209.851,504.607 211,507.5C 213.782,509.771 215.949,512.437 217.5,515.5C 213.846,512.841 210.846,509.508 208.5,505.5C 208.198,502.941 208.532,500.607 209.5,498.5 Z"/></g>
<g><path style="opacity:0.514" fill="#666666" d="M 217.5,515.5 C 219.754,516.124 221.421,517.457 222.5,519.5C 220.205,518.864 218.539,517.531 217.5,515.5 Z"/></g>
<g><path style="opacity:0.494" fill="#888888" d="M 515.5,495.5 C 516.222,495.918 516.722,496.584 517,497.5C 517.667,500.167 517.667,502.833 517,505.5C 509.767,516.362 499.934,523.695 487.5,527.5C 495.536,523.392 503.036,518.392 510,512.5C 512.423,509.751 514.423,506.751 516,503.5C 516.175,500.843 516.008,498.176 515.5,495.5 Z"/></g>
<g><path style="opacity:0.008" fill="#797979" d="M 223.5,519.5 C 229.857,522.342 235.857,525.675 241.5,529.5C 234.202,528.138 228.202,524.804 223.5,519.5 Z"/></g>
<g><path style="opacity:0.082" fill="#8d8d8d" d="M 543.5,489.5 C 544.656,496.989 544.822,504.655 544,512.5C 540.781,521.05 535.948,528.55 529.5,535C 519.471,543.846 508.138,550.346 495.5,554.5C 505.032,549.474 514.366,543.974 523.5,538C 531.194,531.65 537.361,524.15 542,515.5C 543.376,506.902 543.876,498.235 543.5,489.5 Z"/></g>
<g><path style="opacity:0.533" fill="#959595" d="M 183.5,516.5 C 188.696,523.715 194.363,530.715 200.5,537.5C 192.271,532.602 186.604,525.602 183.5,516.5 Z"/></g>
<g><path style="opacity:0.647" fill="#676767" d="M 241.5,529.5 C 245.419,530.387 249.085,531.721 252.5,533.5C 248.32,533.218 244.653,531.885 241.5,529.5 Z"/></g>
<g><path style="opacity:0.651" fill="#737373" d="M 487.5,527.5 C 484.68,530.081 481.346,531.914 477.5,533C 471.296,535.074 464.962,536.574 458.5,537.5C 468.22,534.592 477.887,531.259 487.5,527.5 Z"/></g>
<g><path style="opacity:0.161" fill="#818181" d="M 252.5,533.5 C 264.306,536.367 275.972,539.367 287.5,542.5C 275.138,541.635 263.471,538.635 252.5,533.5 Z"/></g>
<g><path style="opacity:0.035" fill="#9f9f9f" d="M 458.5,537.5 C 454.837,539.416 450.837,540.416 446.5,540.5C 450.239,538.898 454.239,537.898 458.5,537.5 Z"/></g>
<g><path style="opacity:0.929" fill="#8c8c8c" d="M 446.5,540.5 C 444.485,541.924 442.152,542.59 439.5,542.5C 441.438,540.837 443.772,540.171 446.5,540.5 Z"/></g>
<g><path style="opacity:0.024" fill="#a9a9a9" d="M 206.5,542.5 C 209.292,542.622 211.292,543.956 212.5,546.5C 210.223,545.551 208.223,544.218 206.5,542.5 Z"/></g>
<g><path style="opacity:0.596" fill="#595959" d="M 438.5,542.5 C 438.082,543.222 437.416,543.722 436.5,544C 428.503,545.277 420.503,546.444 412.5,547.5C 412.5,547.167 412.5,546.833 412.5,546.5C 421.105,545.007 429.771,543.673 438.5,542.5 Z"/></g>
<g><path style="opacity:0.255" fill="#636363" d="M 287.5,542.5 C 306.034,545.64 324.701,547.64 343.5,548.5C 356.656,549.496 369.99,549.829 383.5,549.5C 354.115,551.821 324.782,550.321 295.5,545C 292.478,544.902 289.811,544.068 287.5,542.5 Z"/></g>
<g><path style="opacity:0.171" fill="#989898" d="M 412.5,546.5 C 412.5,546.833 412.5,547.167 412.5,547.5C 402.829,548.111 393.162,548.778 383.5,549.5C 369.99,549.829 356.656,549.496 343.5,548.5C 366.536,548.833 389.536,548.166 412.5,546.5 Z"/></g>
<g><path style="opacity:0.686" fill="#777777" d="M 212.5,546.5 C 216.68,546.782 220.347,548.115 223.5,550.5C 222.5,550.5 221.5,550.5 220.5,550.5C 217.515,549.674 214.849,548.341 212.5,546.5 Z"/></g>
<g><path style="opacity:0.165" fill="#adadad" d="M 220.5,550.5 C 221.5,550.5 222.5,550.5 223.5,550.5C 228.381,553.676 233.715,556.009 239.5,557.5C 242.079,559.025 244.746,560.359 247.5,561.5C 237.696,559.571 228.696,555.905 220.5,550.5 Z"/></g>
<g><path style="opacity:0.969" fill="#474747" d="M 239.5,557.5 C 243.767,558.256 247.767,559.589 251.5,561.5C 250.167,561.5 248.833,561.5 247.5,561.5C 244.746,560.359 242.079,559.025 239.5,557.5 Z"/></g>
<g><path style="opacity:0.392" fill="#8e8e8e" d="M 495.5,554.5 C 485.595,559.987 474.929,563.654 463.5,565.5C 472.292,561.581 481.292,558.081 490.5,555C 492.134,554.506 493.801,554.34 495.5,554.5 Z"/></g>
<g><path style="opacity:0.596" fill="#888888" d="M 247.5,561.5 C 248.833,561.5 250.167,561.5 251.5,561.5C 258.162,563.166 264.828,564.833 271.5,566.5C 271.5,566.833 271.5,567.167 271.5,567.5C 270.833,567.5 270.167,567.5 269.5,567.5C 261.898,566.102 254.564,564.102 247.5,561.5 Z"/></g>
<g><path style="opacity:0.22" fill="#757575" d="M 462.5,565.5 C 459.381,566.87 456.048,567.87 452.5,568.5C 451.167,568.5 449.833,568.5 448.5,568.5C 452.766,566.245 457.432,565.245 462.5,565.5 Z"/></g>
<g><path style="opacity:0.043" fill="#cdcdcd" d="M 269.5,567.5 C 270.167,567.5 270.833,567.5 271.5,567.5C 276.837,568.502 282.17,569.502 287.5,570.5C 287.5,570.833 287.5,571.167 287.5,571.5C 281.134,571.296 275.134,569.963 269.5,567.5 Z"/></g>
<g><path style="opacity:0.992" fill="#414141" d="M 271.5,567.5 C 271.5,567.167 271.5,566.833 271.5,566.5C 277.223,566.777 282.557,568.111 287.5,570.5C 282.17,569.502 276.837,568.502 271.5,567.5 Z"/></g>
<g><path style="opacity:0.027" fill="#dadada" d="M 447.5,568.5 C 447.833,568.5 448.167,568.5 448.5,568.5C 449.833,568.5 451.167,568.5 452.5,568.5C 448.761,570.102 444.761,571.102 440.5,571.5C 442.779,570.349 445.112,569.349 447.5,568.5 Z"/></g>
<g><path style="opacity:0.102" fill="#b6b6b6" d="M 288.5,571.5 C 293.71,571.608 298.71,572.275 303.5,573.5C 298.25,573.698 293.25,573.031 288.5,571.5 Z"/></g>
<g><path style="opacity:0.255" fill="#9c9c9c" d="M 447.5,568.5 C 445.112,569.349 442.779,570.349 440.5,571.5C 429.575,573.407 418.575,574.741 407.5,575.5C 407.918,574.778 408.584,574.278 409.5,574C 422.231,572.489 434.898,570.656 447.5,568.5 Z"/></g>
<g><path style="opacity:0.565" fill="#a0a0a0" d="M 321.5,575.5 C 349.497,576.731 377.497,576.731 405.5,575.5C 391.534,577.037 377.367,577.704 363,577.5C 348.964,577.715 335.13,577.048 321.5,575.5 Z"/></g>
</svg>
